<?xml version="1.0" encoding="utf-8"?><svg viewBox="0 0 203 45" xmlns="http://www.w3.org/2000/svg" xmlns:xlink="http://www.w3.org/1999/xlink"><style>:root>svg{display:none}:root>svg:target{display:block}</style><svg fill="none" viewBox="0 0 19 23" id="appstore" xmlns="http://www.w3.org/2000/svg"><path d="M18.57 15.98a.48.48 0 00-.338-.216 3.332 3.332 0 01-.56-6.484.48.48 0 00.257-.714 5.592 5.592 0 00-4.033-2.816 7.894 7.894 0 00-2.51.538 6.059 6.059 0 01-1.803.42 6.06 6.06 0 01-1.802-.42 7.893 7.893 0 00-2.51-.538C3.48 5.75 0 8.287 0 12.937 0 17.357 3.224 23 5.75 23a6.116 6.116 0 002.78-.64 2.63 2.63 0 011.053-.319c.37.031.73.14 1.054.319.863.43 1.816.649 2.78.64 2.002 0 4.263-3.439 5.21-6.625a.48.48 0 00-.057-.396zM9.104 5.75a5.276 5.276 0 005.27-5.27.48.48 0 00-.478-.48 5.277 5.277 0 00-5.271 5.27c0 .265.214.48.48.48z" fill="#fff"/></svg><svg fill="none" viewBox="0 0 30 30" id="blagoustrojstvo-territorii" xmlns="http://www.w3.org/2000/svg"><g clip-path="url(#bclip0)"><path d="M27.051 24.57a1.893 1.893 0 010 3.785h-3.214a3.014 3.014 0 112.92-3.763c.098-.015.196-.022.294-.022zM13.905 28.355H3.72c-.494-1.061.566-2.617 2.065-1.66.016.01.038 0 .056.002a3.016 3.016 0 015.879-.166 1.922 1.922 0 01.483-.013 1.89 1.89 0 011.702 1.837z" fill="#FE8700"/><path d="M17.873 17.192c2.772-2.935 6.643-3.224 6.643-3.224-1.01.938-2.578 2.267-3.466 3.61-2.864 4.332-2.015 9.739-1.751 10.777H15.4c-.166-.895-.244-1.89-.272-2.907-.106-3.953 1.133-6.551 2.744-8.256z" fill="#00B913"/><path d="M15.16 13.296c3.065-4.306 7.303-5.814 7.303-5.814-2.993 4.215-3.85 6.606-4.59 9.71-1.61 1.705-2.85 4.303-2.744 8.256.028 1.017.106 2.012.272 2.907h-1.496a1.891 1.891 0 00-1.702-1.837l.001-.017-.117-1.928c-.13-2.882.292-5.32 1.031-7.372a16.133 16.133 0 012.042-3.905z" fill="#00B913"/><path d="M13.91 1.704c.935 3.238 1.376 10.737 1.25 11.592a16.13 16.13 0 00-2.042 3.905 16.436 16.436 0 00-1.92-3.935c-.664-4.59 1.305-9.415 2.712-11.562z" fill="#00B913"/><path d="M11.199 13.266a16.439 16.439 0 011.92 3.935c-.74 2.051-1.162 4.49-1.032 7.372l.118 1.928-.002.017a1.94 1.94 0 00-.482.013 3.011 3.011 0 00-.464-.998l.004-.003.067-1.952c-.13-3.677-1.503-6.022-3.204-7.517-.74-3.102-1.603-5.04-4.595-9.254 0 0 4.564 1.79 7.67 6.46z" fill="#00B913"/><path d="M8.8 24.265c-.55 0-1.089.15-1.558.433l-.004-.005c-.07-2.555-1.561-5.947-2.688-7.652-.888-1.342-2.455-2.671-3.466-3.61.07 0 4.059.011 7.04 2.63 1.7 1.495 3.074 3.84 3.203 7.517l-.066 1.952-.005.004A3.009 3.009 0 008.8 24.266z" fill="#00B913"/><path d="M29.62 26.462a2.57 2.57 0 00-2.384-2.561 3.69 3.69 0 10-6.25 3.779h-1.13c-.247-1.494-.712-5.995 1.757-9.73.703-1.062 1.892-2.145 2.848-3.016.182-.166.355-.324.514-.472a.675.675 0 00-.51-1.168c-.137.01-2.808.232-5.37 1.978.704-2.24 1.738-4.33 3.918-7.4a.676.676 0 00-.777-1.027c-.159.057-3.477 1.267-6.416 4.547-.123-2.737-.56-7.443-1.262-9.876a.675.675 0 00-1.213-.182c-1.095 1.67-2.88 5.558-2.953 9.759C7.4 7.63 3.942 6.244 3.775 6.178a.675.675 0 00-.797 1.02c2.11 2.972 3.21 4.792 3.99 7.219-2.94-1.69-6.254-1.778-6.293-1.778a.675.675 0 00-.447 1.18c.027.024 2.714 2.404 3.812 3.665 1.194 1.372 2.34 4.554 2.504 6.875a3.705 3.705 0 00-1.124 1.436c-.649-.178-1.283-.046-1.783.393-.428.382-.684.92-.71 1.492H.021v1.35H30v-1.35h-.689c.203-.374.308-.793.308-1.218zm-9.134-9.256c-2.432 3.679-2.355 8.228-2.008 10.474h-2.502c-.1-.746-.156-1.497-.172-2.25-.088-3.268.774-5.883 2.56-7.774 1.2-1.27 2.635-2.012 3.823-2.441-.63.623-1.242 1.297-1.7 1.99zm-.038-7.935c-1.804 2.874-2.555 4.971-3.19 7.593-1.956 2.147-2.9 5.04-2.804 8.603.022.823.075 1.554.16 2.213h-.137a2.573 2.573 0 00-1.628-1.708l-.088-1.435c-.115-2.57.218-4.96.992-7.108a15.503 15.503 0 011.957-3.742c1.51-2.122 3.334-3.542 4.738-4.416zm-8.021-2.517c.313-1.095.72-2.162 1.214-3.19.63 3.426.9 8.49.862 9.494a16.796 16.796 0 00-1.362 2.34c-.368-.824-.8-1.617-1.293-2.372-.25-1.9-.052-4.064.579-6.272zm-1.791 6.886a15.804 15.804 0 011.768 3.56 18.291 18.291 0 00-.811 3.39c-.504-1.966-1.462-3.604-2.862-4.89-.629-2.564-1.396-4.37-3.06-6.95 1.497.99 3.426 2.576 4.965 4.89zm-7.916.62c1.454.306 3.412.95 4.958 2.309 1.863 1.636 2.863 3.995 2.974 7.01l-.018.502a3.68 3.68 0 00-2.794-.364c-.303-2.55-1.476-5.621-2.781-7.12-.574-.658-1.518-1.571-2.339-2.336zm1.806 12.944c.28-.244.641-.102.901.064.136.085.297.12.456.103a.675.675 0 00.621-.544 2.341 2.341 0 014.562-.128.675.675 0 00.757.5 1.21 1.21 0 011.17.482H4.282a.78.78 0 01.244-.477zm19.311.476a2.339 2.339 0 112.267-2.92.675.675 0 00.757.5 1.217 1.217 0 11.19 2.42h-3.214z" fill="#284268"/></g><defs><clipPath id="bclip0"><path fill="#fff" d="M0 0h30v30H0z"/></clipPath></defs></svg><svg fill="none" viewBox="0 0 19 20" id="gp" xmlns="http://www.w3.org/2000/svg"><path d="M18.66 9.997c0 .625-.35 1.174-.858 1.458l-4.331 2.407-3.666-3.865 3.666-3.866 4.331 2.408c.509.283.858.833.858 1.458z" fill="#FFC107"/><path d="M9.805 9.997L.808 19.485c-.3-.3-.475-.708-.475-1.158V1.667c0-.45.175-.859.475-1.159l8.997 9.489z" fill="#03A9F4"/><path d="M9.805 9.997l3.665 3.865C2.497 19.881 2.037 20.782.808 19.485l8.997-9.488z" fill="#F44336"/><path d="M13.47 6.131L9.805 9.997.808.508a1.655 1.655 0 012-.3L13.47 6.131z" fill="#4CAF50"/></svg><svg fill="none" viewBox="0 0 32 32" id="kliningovye-uslugi" xmlns="http://www.w3.org/2000/svg"><path d="M5.563 1.5h9.5a1.5 1.5 0 010 3h-9.5v-3z" fill="#FE8700"/><path d="M3.563 2h2v2h-2V2z" fill="#E27A05"/><path d="M11.063 4.5h3v3h-3v-3z" fill="#CCD3DF"/><path d="M8.563 6v.5a3 3 0 01-3 3 1 1 0 010-2 1 1 0 001-1v-2h2V6zM10.063 7.5h5v4h-5v-4z" fill="#E27A05"/><path d="M9.063 12.5v.5a2 2 0 01-2 2h-1a2 2 0 00-2 2v11.5a2 2 0 002 2h8a2 2 0 002-2v-16a2 2 0 00-2-2h-3a2 2 0 00-2 2z" fill="#FE8700"/><path d="M12.063 13.5V16a1 1 0 01-1 1h-4a1 1 0 00-1 1v9.5a1 1 0 001 1h6a1 1 0 001-1v-14a1 1 0 00-2 0z" fill="#CCD3DF"/><path d="M24.563 3.5h-3V1.946l1.183-.395a1 1 0 01.633 0l1.183.395V3.5z" fill="#E27A05"/><path d="M21.563 3.5h3V6h-3V3.5z" fill="#ED8424"/><path d="M25.563 30.5a2 2 0 002-2V17c0-.5-.5-1-.5-1.5s.5-.984.5-1.5c0-.5-.5-1-.5-1.5s.5-.984.5-1.5V9.999h-.003a4.499 4.499 0 00-8.997 0V11c0 .516.5 1 .5 1.5s-.5 1-.5 1.5c0 .516.5 1 .5 1.5s-.5 1-.5 1.5v11.5a2 2 0 002 2h5z" fill="#FE8700"/><path d="M23.063 7.5a2.5 2.5 0 012.5 2.5v.5a1 1 0 01-1 1h-3a1 1 0 01-1-1V10a2.5 2.5 0 012.5-2.5zM10 26.5h18v4H10v-4z" fill="#CCD3DF"/><path d="M10.5 23.5h17a1 1 0 011 1v2h-19v-2a1 1 0 011-1z" fill="#B0B5CA"/><path d="M24.5 12a1.502 1.502 0 001.5-1.5V10a3 3 0 00-6 0v.5a1.502 1.502 0 001.5 1.5h3zM21 10.5V10a2 2 0 114 0v.5a.5.5 0 01-.5.5h-3a.5.5 0 01-.5-.5z" fill="#284268"/><path d="M15 5a2 2 0 000-4H5.5a.5.5 0 00-.5.5H3.5A.5.5 0 003 2v2a.5.5 0 00.5.5H5a.5.5 0 00.5.5H6v1.5a.5.5 0 01-.5.5 1.5 1.5 0 000 3A3.504 3.504 0 009 6.5V5h1.5v2H10a.5.5 0 00-.5.5v3h.002a2.498 2.498 0 00-1.002 2v.5A1.502 1.502 0 017 14.5H6A2.503 2.503 0 003.5 17v11.5A2.503 2.503 0 006 31h22a.5.5 0 00.5-.5V27a.5.5 0 00.5-.5v-2a1.502 1.502 0 00-1-1.414V17c0-.368-.16-.69-.303-.974-.097-.194-.197-.394-.197-.526 0-.13.098-.325.194-.513.143-.285.306-.608.306-.987 0-.368-.16-.69-.303-.974-.097-.194-.197-.394-.197-.526 0-.13.098-.325.194-.513.143-.285.306-.608.306-.987V9.998a5.006 5.006 0 00-3-4.58V1.947a.5.5 0 00-.342-.474l-1.184-.395a1.51 1.51 0 00-.948 0l-1.184.395a.5.5 0 00-.342.474v3.473a5.006 5.006 0 00-3 4.579V11c0 .379.163.702.306.987.095.188.194.384.194.513 0 .132-.1.332-.197.526-.142.284-.303.606-.303.974 0 .379.163.702.306.987.095.188.194.384.194.513 0 .132-.1.332-.197.526-.142.284-.303.606-.303.974v6h-1.5V12.5a2.497 2.497 0 00-1.002-2h.002v-3A.5.5 0 0015 7h-.5V5h.5zM5 3.5H4v-1h1v1zm3 3A2.503 2.503 0 015.5 9a.5.5 0 110-1A1.502 1.502 0 007 6.5V5h1v1.5zM10.5 8h4v2.05A2.503 2.503 0 0014 10h-3c-.168 0-.335.017-.5.05V8zm1-1V5h2v2h-2zm-2 21H7a.5.5 0 01-.5-.5V18a.5.5 0 01.5-.5h4a1.501 1.501 0 001.5-1.5v-2.5a.5.5 0 011 0V23h-3A1.501 1.501 0 009 24.5v2a.5.5 0 00.5.5v1zm18 2h-1v-1.5a.5.5 0 00-1 0V30h-1v-1.5a.5.5 0 00-1 0V30h-1v-1.5a.5.5 0 00-1 0V30h-1v-1.5a.5.5 0 00-1 0V30h-1v-1.5a.5.5 0 00-1 0V30h-1v-1.5a.5.5 0 00-1 0V30h-1v-1.5a.5.5 0 00-1 0V30h-1v-1.5a.5.5 0 00-1 0V30h-1v-3h17v3zM22 2.306l.842-.28a.502.502 0 01.316 0l.842.28V3h-2v-.694zM22 4h2v1.1a5.02 5.02 0 00-2 0V4zm-3 13c0-.132.1-.332.197-.526.142-.284.303-.606.303-.974 0-.367-.16-.684-.3-.963-.099-.195-.2-.396-.2-.537 0-.132.1-.332.197-.526.142-.284.303-.606.303-.974 0-.367-.16-.684-.3-.963-.099-.195-.2-.396-.2-.537v-1a4.002 4.002 0 013.983-4.017A4 4 0 0127 10.033V11c0 .14-.101.342-.2.537-.14.28-.3.596-.3.963 0 .368.16.69.303.974.097.194.197.394.197.526 0 .14-.101.342-.2.537-.14.28-.3.596-.3.963 0 .368.16.69.303.974.097.194.197.394.197.526v6h-1.5v-4.5a.5.5 0 00-1 0V23h-1v-4.5a.5.5 0 00-1 0V23h-1v-4.5a.5.5 0 00-1 0V23H19v-6zm8.5 7a.5.5 0 01.5.5V26H10v-1.5a.5.5 0 01.5-.5h17zm-12-11.5V23h-1v-9.5a1.5 1.5 0 10-3 0V16a.5.5 0 01-.5.5H7A1.502 1.502 0 005.5 18v9.5A1.502 1.502 0 007 29h2.5v1H6a1.501 1.501 0 01-1.5-1.5V17A1.502 1.502 0 016 15.5h1c.54 0 1.066-.175 1.498-.5H10a.5.5 0 000-1h-.71c.139-.315.21-.656.21-1h.5a.5.5 0 000-1h-.414A1.502 1.502 0 0111 11h3a1.502 1.502 0 011.5 1.5zM6 4V2h9a1 1 0 110 2H6z" fill="#284268"/></svg><svg fill="none" viewBox="0 0 203 45" id="logo" xmlns="http://www.w3.org/2000/svg"><path d="M47.617 37.734h-2.695v3.594h2.695v-3.594zM44.023 37.734H40.43v3.594h3.593v-3.594z" fill="#C2C2C2"/><path fill-rule="evenodd" clip-rule="evenodd" d="M46.266 33.242h-1.344v3.594h2.695v-1.802c0-.981-.608-1.792-1.351-1.792zM42.232 33.242h1.791v3.594H40.43v-1.802c0-.981.81-1.792 1.802-1.792z" fill="#C2C2C2"/><path fill-rule="evenodd" clip-rule="evenodd" d="M27.588 35.43l16.435-14.208C43.605 9.479 33.967 0 22.236 0h-.429C9.817 0 0 9.901 0 22.007c0 7.466 3.738 14.097 9.409 18.082V23.566h6.458v19.622c1.894.543 3.877.835 5.94.835h11.094v-8.865l-3.2 2.767-2.113-2.495zm-6.756-17.71h-1.375v-.926h-2.762a.902.902 0 00-.886.906V20.447h.608v1.378H8.742v-1.378h.608v-6.289-.09-.081c.01-.03.01-.05.01-.08s0-.061.01-.081c0-.03 0-.06.01-.08 0-.031 0-.061.01-.081 0-.03.01-.06.01-.081.01-.03.01-.06.02-.08 0-.03.01-.06.01-.081.01-.03.02-.05.02-.08.01-.03.02-.051.02-.081.01-.02.02-.05.03-.07 0-.03.01-.051.02-.081.01-.02.02-.05.03-.07.01-.03.02-.05.03-.081.01-.02.02-.05.03-.07.009-.03.02-.05.029-.07.01-.03.02-.051.03-.071.02-.05.05-.1.07-.141.02-.03.03-.05.04-.07.01-.02.03-.05.039-.07.01-.021.03-.041.04-.071.02-.02.03-.04.05-.06.01-.021.03-.04.04-.071.02-.02.03-.04.05-.06l.09-.121a.28.28 0 00.05-.06.27.27 0 00.05-.06l.059-.061c.02-.01.03-.03.05-.05.04-.04.08-.07.11-.111.02-.02.04-.03.06-.05.02-.02.039-.03.06-.051.02-.02.039-.03.059-.05.02-.02.04-.03.06-.05.03-.01.05-.031.07-.041.02-.02.04-.03.059-.05.02-.01.05-.031.07-.04.02-.01.04-.031.06-.041.03-.02.05-.03.07-.04.02-.01.05-.03.069-.04.02-.01.05-.02.07-.04.02-.01.04-.021.07-.03.02-.01.05-.021.07-.041.02-.01.05-.02.07-.03.03-.01.05-.02.079-.03.02-.01.04-.02.07-.03.02 0 .05-.01.07-.02.03-.01.05-.021.08-.03.02 0 .05-.01.08-.021.02-.01.05-.01.069-.02.03-.01.05-.01.08-.02s.05-.01.08-.02c.03 0 .05-.01.08-.01.02-.01.05-.01.08-.021.029 0 .049 0 .079-.01.03 0 .05 0 .08-.01h.08c.03-.01.06-.01.08-.01H19.456v-.926h1.376v7.749zm12.23 8.785a1.665 1.665 0 01-1.655-1.671c0-.926 1.096-4.035 1.654-4.035.559 0 1.655 3.11 1.655 4.035 0 .916-.748 1.67-1.655 1.67zm-7.625-10.516h-2.83v-3.622h2.83a3.143 3.143 0 011.505-1.188V9.992h-1.655a.582.582 0 01-.578-.584v-.986c0-.322.259-.583.578-.583h1.704a1.13 1.13 0 011.067-.795c.498 0 .917.342 1.066.795h1.705c.319 0 .578.261.578.583v.986c0 .322-.26.584-.578.584h-1.665v1.187a3.167 3.167 0 011.515 1.188h2.104c.02 0 .03 0 .05.01h.049c.02 0 .04 0 .06.01h.05c.01.01.03.01.05.01.02.01.03.01.05.01.02.01.03.01.05.01.02.01.03.01.05.02.02 0 .03 0 .05.01.01 0 .03.01.05.01.01.01.03.01.05.02.01 0 .03.01.039.02.02 0 .03.01.05.01.02.01.03.02.05.02.01.01.03.02.04.02.02.01.03.02.05.02.03.02.06.03.09.051.009.01.029.02.039.02.02.01.03.02.04.03.02.01.03.02.05.03.01.01.02.01.04.02.01.01.03.021.04.031.01.01.029.02.038.03.03.02.05.04.08.06.01.01.02.02.03.04.02.01.03.02.04.03.01.01.03.021.04.031.01.01.02.03.03.04.03.02.05.04.07.07l.04.04.03.031c.01.02.02.03.03.04.01.02.02.03.03.04.009.02.02.03.029.04.01.021.02.031.03.04.01.021.02.031.02.041.01.02.02.03.03.05.01.01.02.03.03.04 0 .01.01.031.02.041.01.02.02.03.02.05.01.01.02.03.03.04 0 .02.01.03.02.05 0 .01.01.031.02.041 0 .02.01.04.02.05 0 .02.01.03.02.05 0 .01.01.031.01.051.01.01.01.03.02.04 0 .02.01.04.01.05.01.021.01.04.02.051 0 .02 0 .04.01.05 0 .02.01.04.01.051 0 .02.01.04.01.05 0 .02 0 .04.009.05v.051c.01.02.01.04.01.06 0 .01 0 .03.01.051V17.7h.588v2.063h-4.475V17.7h.588v-1.137a.577.577 0 00-.569-.574h-.19a3.163 3.163 0 01-2.62 1.389 3.148 3.148 0 01-2.621-1.389z" fill="#00B913"/><path fill-rule="evenodd" clip-rule="evenodd" d="M66.978 27.165l-4.69-5.988-1.729 1.36.19.24c.3.37.23.92-.15 1.219l-1.84 1.44a.87.87 0 01-1.22-.14l-2.199-2.81a.87.87 0 01.14-1.22l1.85-1.449c.38-.29.93-.23 1.22.15l.19.24 1.729-1.35c.34-.25-.64-.79-.34-1.09 2.54-2.51 5.039-4.159 8.418-4.699a16.422 16.422 0 00-8.648-2.46h-.33c-6.97 0-12.958 4.36-15.398 10.479l8.309 7.119v-2.17h3.4v5.08l4.768 4.089-2.12 2.48-2.629-2.25v8.308h4c5.638 0 10.648-2.87 13.647-7.209l-6.139-7.829c-.349-.45-.489-1.01-.43-1.54z" fill="#FF8B00"/><path fill-rule="evenodd" clip-rule="evenodd" d="M71.227 15.117c-2.99.57-5 1.59-4.87 3.98l4.16 5.299c.53.07 1.03.33 1.39.78l4.209 5.369c.22-1.09.34-2.22.34-3.37 0-4.74-2.01-9.028-5.23-12.058z" fill="#FF8B00"/><path d="M99.183 15.881V5.347h-7.965l-.532 4.249c-.521 4.04-.88 5.429-1.575 6.286h-.995v5.88h2.373l.358-3.23h6.795l.371 3.23h2.361v-5.88h-1.191zm-3.38 0h-3.948c1.18-.973 1.77-2.616 2.165-6.667l.139-1.32h1.643v7.987zM109.007 5c-3.844 0-6.043 2.64-6.043 6.934 0 4.387 2.199 6.945 6.043 6.945 3.831 0 6.053-2.662 6.053-6.945 0-4.387-2.222-6.934-6.053-6.934zm0 2.523c1.631 0 2.384 1.216 2.384 4.41 0 3.184-.741 4.422-2.384 4.422-1.598 0-2.396-1.238-2.396-4.422 0-3.194.775-4.41 2.396-4.41zm21.91-2.176h-4.388l-1.597 8.751-1.759-8.75h-4.364l-1.973 13.184h3.45l1.162-4.909c.046-1.805.224-2.56.051-4.631l1.708 8.174h3.322l1.806-8.937c-.15 1.829-.116 3.624-.057 5.395l1.173 4.908h3.45l-1.984-13.185z" fill="#474747"/><path d="M92.815 30.977h-1.308v-1.99h4.688l.348-2.64H88v13.185h4.931c2.999 0 5.187-1.436 5.187-4.399-.001-2.767-1.958-4.156-5.303-4.156zm-.278 6.054h-1.03v-3.657h.95c1.423 0 1.99.682 1.99 1.794 0 1.215-.648 1.863-1.91 1.863zm17.234-10.684h-8.369v13.185h8.311v-2.477h-4.804v-2.999h3.936v-2.419h-3.936v-2.801h4.503l.359-2.489zm6.827 13.532c3.206 0 5.406-1.563 5.406-4.063 0-1.933-1.25-3.021-3.415-3.241 2.084-.44 3.033-1.62 3.033-3.08 0-2.025-1.783-3.495-4.665-3.495-1.84 0-3.403.613-4.63 1.783l1.598 1.748c.891-.695 1.724-1.042 2.535-1.042 1.146 0 1.574.625 1.574 1.4 0 .938-.637 1.483-1.817 1.483h-1.088l-.394 2.454h1.424c1.482 0 2.188.682 2.188 1.782 0 1.157-.788 1.748-2.014 1.748-1.007 0-1.771-.382-2.582-1.146l-1.84 1.806c1.099 1.203 2.557 1.863 4.687 1.863zm14.498 0c3.218 0 5.418-1.563 5.418-4.063 0-1.933-1.25-3.021-3.415-3.241 2.083-.44 3.033-1.62 3.033-3.08 0-2.025-1.783-3.495-4.665-3.495-1.841 0-3.404.613-4.63 1.783l1.585 1.748c.892-.695 1.725-1.042 2.547-1.042 1.135 0 1.575.625 1.575 1.4 0 .938-.649 1.483-1.818 1.483h-1.088l-.393 2.454h1.423c1.482 0 2.177.682 2.177 1.782 0 1.157-.776 1.748-2.003 1.748-1.007 0-1.771-.382-2.581-1.146l-1.853 1.806c1.111 1.203 2.57 1.863 4.688 1.863zm15.671-.347h3.716l-3.901-13.185h-4.214l-3.912 13.185h3.646l.579-2.686h3.496l.59 2.686zm-3.53-5.197l1.192-5.487 1.204 5.486h-2.396zm14.733-3.358h-1.308v-1.99h4.688l.348-2.64h-8.543v13.185h4.931c2.998 0 5.186-1.436 5.186-4.399-.001-2.767-1.957-4.156-5.302-4.156zm-.278 6.054h-1.03v-3.657h.949c1.424 0 1.991.682 1.991 1.794 0 1.215-.637 1.863-1.91 1.863zM172.078 26c-3.831 0-6.031 2.64-6.031 6.934 0 4.387 2.2 6.945 6.031 6.945 3.843 0 6.054-2.662 6.054-6.945 0-4.387-2.211-6.934-6.054-6.934zm0 2.523c1.632 0 2.396 1.216 2.396 4.41 0 3.184-.741 4.422-2.396 4.422-1.585 0-2.384-1.238-2.384-4.422 0-3.194.775-4.41 2.384-4.41zm18.31-2.176h-10.29v2.674h3.299v10.511h3.519v-10.51h3.113l.359-2.675zM198 17.492c-2.757 0-5 2.243-5 5s2.243 5 5 5 5-2.243 5-5-2.243-5-5-5zm0 8.623a3.628 3.628 0 01-3.624-3.623A3.628 3.628 0 01198 18.868a3.628 3.628 0 013.624 3.624A3.628 3.628 0 01198 26.115zm1.817-4.274c0-1.009-.708-1.636-1.849-1.636h-1.689v4.573h.968v-1.274h.721l.134-.003.932 1.277h1.2l-1.136-1.556c.464-.29.719-.78.719-1.38zm-1.849.694h-.721v-1.361h.721c.88 0 .88.502.88.667 0 .172 0 .694-.88.694z" fill="#757575"/></svg><svg fill="none" viewBox="0 0 30 30" id="master-na-chas" xmlns="http://www.w3.org/2000/svg"><path d="M28.697 25.517L12.915 9.735A6.427 6.427 0 005.027.975l2.605 2.606-.672 3.354-3.467.613-2.514-2.53a6.426 6.426 0 008.756 7.897l15.782 15.782a2.247 2.247 0 103.18-3.18z" fill="#B0B5CA"/><path d="M28.95 2.152l-1.938 3.313-1.707.606-6.645 6.645-.104.104-1.376-1.376.104-.104 6.645-6.645.606-1.707 3.313-1.938 1.102 1.102z" fill="#E5E5E5"/><path d="M14.948 12.559l1.671-1.672 2.49 2.49-1.67 1.672-2.491-2.49z" fill="#A0EAEA"/><path d="M17.917 15.524l-3.442-3.44A.973.973 0 0013.1 13.46l3.441 3.44a.973.973 0 001.377-1.376zM13.255 13.615l-3.563 1.95-7.94 7.94a2.395 2.395 0 000 3.388l1.355 1.355a2.395 2.395 0 003.388 0l7.94-7.94 1.95-3.563-3.13-3.13z" fill="#FE8700"/><path d="M3.698 12.373A6.42 6.42 0 012.054 6.1L.98 5.018a6.43 6.43 0 003.201 7.79 6.499 6.499 0 01-.483-.435z" fill="#CCD3DF"/><path d="M2.924 27.654a2.395 2.395 0 010-3.387l7.94-7.94 3.298-1.805-.907-.907-3.563 1.95-7.94 7.94a2.395 2.395 0 000 3.388l1.355 1.355c.282.283.63.49 1.014.604l-1.197-1.198z" fill="#E27A05"/><path d="M18.332 14.655l1.03-1.029a.353.353 0 000-.497l-.309-.309 6.445-6.444 1.632-.58a.352.352 0 00.186-.153l1.937-3.314a.351.351 0 00-.055-.426l-1.1-1.101a.351.351 0 00-.427-.055l-3.313 1.937a.352.352 0 00-.154.186l-.58 1.632-6.444 6.445-.309-.309a.353.353 0 00-.497 0l-1.03 1.03-2.012-2.013A6.778 6.778 0 004.916.642a.352.352 0 00-.137.582L7.25 3.696l-.589 2.935-3.05.539-2.383-2.4a.352.352 0 00-.583.136 6.778 6.778 0 009.01 8.426l1.197 1.197-1.33.728a.35.35 0 00-.08.06l-7.94 7.94a2.75 2.75 0 000 3.884l1.355 1.355a2.75 2.75 0 003.885 0l7.94-7.94a.349.349 0 00.06-.079l.727-1.33 9.799 9.798a2.601 2.601 0 004.24-2.833 2.601 2.601 0 00-.563-.844L18.332 14.655zm-.664 1.997a.622.622 0 01-.879 0l-3.44-3.44a.622.622 0 01.878-.88l3.441 3.441a.623.623 0 010 .879zm6.51-11.709a.352.352 0 00.082-.13l.563-1.586 2.969-1.736.717.717-1.736 2.969-1.585.562a.352.352 0 00-.131.083l-6.5 6.501-.88-.879 6.5-6.5zm-7.555 6.441l1.993 1.993-1.174 1.175-1.994-1.993 1.175-1.175zm-6.64 1.282a.352.352 0 00-.394-.071 6.1 6.1 0 01-6.814-1.233 6.037 6.037 0 01-1.622-5.671l2.09 2.105a.352.352 0 00.31.098l3.468-.613a.352.352 0 00.284-.277l.672-3.354a.352.352 0 00-.096-.318L5.7 1.151a6.075 6.075 0 016.895 8.438.352.352 0 00.071.394l1.53 1.53a1.322 1.322 0 00-1.564.612l-.624-.624a.352.352 0 10-.497.497l.969.969c.029.198.103.388.216.554l-1.2.657-1.512-1.512zm4.167 7.43L6.246 28a2.046 2.046 0 01-2.89 0L2 26.643a2.047 2.047 0 010-2.89l7.904-7.904 3.288-1.8 2.757 2.757-1.8 3.289zm14.298 8.352a1.897 1.897 0 01-2.682 0l-9.943-9.943.657-1.2c.167.114.359.189.56.218l.018.022 7.72 7.72a.352.352 0 00.497-.497l-7.4-7.4a1.317 1.317 0 00.612-1.563l9.961 9.96a1.896 1.896 0 010 2.683z" fill="#284268"/><path d="M11.562 8.184a.352.352 0 00.35-.324 5.44 5.44 0 00-.259-2.128.353.353 0 00-.648-.048.353.353 0 00-.02.269c.198.596.274 1.226.226 1.853a.351.351 0 00.35.378zM11.058 4.491a5.444 5.444 0 00-.333-.458.352.352 0 10-.547.442c.104.128.2.26.29.399a.35.35 0 00.488.106.35.35 0 00.102-.489zM10.86 20.157l-5.617 5.617a.351.351 0 00.497.497l5.617-5.617a.351.351 0 10-.497-.497zM9.843 18.643a.352.352 0 00-.497 0L3.73 24.26a.351.351 0 00.498.497l5.616-5.617a.352.352 0 000-.497z" fill="#284268"/></svg><svg fill="none" viewBox="0 0 40 40" id="otdelochnye-remontnye-raboty" xmlns="http://www.w3.org/2000/svg"><path d="M31.25 25H8.75c-.69 0-1.25-.56-1.25-1.25v-7.5c0-.69.56-1.25 1.25-1.25h22.5c.69 0 1.25.56 1.25 1.25v7.5c0 .69-.56 1.25-1.25 1.25z" fill="#E27A05"/><path d="M17.5 32.5h5v6.25h-5V32.5z" fill="#B0B5CA"/><path d="M20.625 32.5h-1.25v-3.125c0-.306.221-.566.522-.616l14.478-2.413v-5.721H32.5v-1.25H35c.345 0 .625.28.625.625v6.875a.625.625 0 01-.522.616l-14.478 2.413V32.5z" fill="#686868"/><path d="M7.5 26.875v5a1.25 1.25 0 102.5 0v-1.25a1.25 1.25 0 112.5 0v3.75a1.25 1.25 0 102.5 0v-7.5" fill="#FE8700"/><path d="M5.625 19.375H7.5v1.25H5.625v-1.25z" fill="#686868"/><path d="M18.75 37.5a.625.625 0 01-.625-.625v-2.5a.625.625 0 011.25 0v2.5c0 .345-.28.625-.625.625z" fill="#CCD3DF"/><path d="M10 15v6.875c0 .69.56 1.25 1.25 1.25H27.5c.69 0 1.25-.56 1.25-1.25V15H10z" fill="#FE8700"/><path d="M8.75 31.875a.625.625 0 01-.625-.625v-3.125a.625.625 0 011.25 0v3.125c0 .345-.28.625-.625.625zM13.75 34.375a.625.625 0 01-.625-.625V32.5a.625.625 0 011.25 0v1.25c0 .345-.28.625-.625.625z" fill="#E27A05"/><path d="M6.875 23.75c0 1.034.841 1.875 1.875 1.875h22.5a1.877 1.877 0 001.875-1.875v-3.125h1.25v5.72L19.897 28.76c-.3.05-.522.31-.522.616v2.5H17.5a.625.625 0 00-.625.625v6.25c0 .345.28.625.625.625h5c.345 0 .625-.28.625-.625V32.5a.625.625 0 00-.625-.625h-1.875v-1.97l14.478-2.414c.3-.05.522-.31.522-.616V20a.625.625 0 00-.625-.625h-1.875V16.25a1.877 1.877 0 00-1.875-1.875H8.75a1.877 1.877 0 00-1.875 1.875v3.125h-1.25v1.25h1.25v3.125zm15 14.375h-3.75v-5h3.75v5zM8.125 16.25c0-.344.28-.625.625-.625h22.5c.344 0 .625.28.625.625v7.5c0 .344-.28.625-.625.625H8.75a.626.626 0 01-.625-.625v-7.5z" fill="#284268"/><path d="M6.875 26.875v5c0 1.034.841 1.875 1.875 1.875a1.877 1.877 0 001.875-1.875v-1.25a.626.626 0 011.25 0v3.75c0 1.034.841 1.875 1.875 1.875a1.877 1.877 0 001.875-1.875v-7.5h-1.25v7.5a.626.626 0 01-1.25 0v-3.75a1.877 1.877 0 00-1.875-1.875 1.877 1.877 0 00-1.875 1.875v1.25a.626.626 0 01-1.25 0v-5h-1.25z" fill="#284268"/></svg><svg fill="none" viewBox="0 0 34 34" id="pereezdy-gruzoperevozki" xmlns="http://www.w3.org/2000/svg"><path d="M33.549 18.146v7.601c0 .938-.76 1.698-1.697 1.698H29.73a2.97 2.97 0 00-5.94 0h-3.621v-9.299h13.38z" fill="#E27A05"/><path d="M28.728 13.28l4.82 4.866h-13.38v-5.313h7.49c.402 0 .787.16 1.07.447zM26.759 24.475a2.97 2.97 0 11.001 5.94 2.97 2.97 0 01-.001-5.94z" fill="#D2D6E8"/><path d="M20.169 18.146v9.3H10.21a2.97 2.97 0 10-5.94 0H2.148c-.937-.001-1.697-.761-1.697-1.699V5.232c0-.937.76-1.697 1.697-1.697h16.324c.937 0 1.697.76 1.697 1.697v12.914zm-5.327-.543h1.762l-1.882-1.37-4.136-3.011-6.017 4.381h1.763v2.108h8.51v-2.108z" fill="#FE8700"/><path d="M7.241 24.475a2.97 2.97 0 110 5.939 2.97 2.97 0 010-5.94z" fill="#D2D6E8"/><path d="M2.148 27.896H3.85a3.42 3.42 0 006.781 0H23.37a3.42 3.42 0 006.781 0h1.702A2.151 2.151 0 0034 25.747v-7.6a.427.427 0 00-.031-.164l-.003-.007a.437.437 0 00-.096-.146l-.001-.002-4.82-4.866a1.966 1.966 0 00-1.39-.58H20.62v-7.15a2.15 2.15 0 00-2.148-2.148H2.148A2.15 2.15 0 000 5.232v20.515a2.151 2.151 0 002.148 2.15zm24.611 2.068a2.519 2.519 0 110-5.038 2.519 2.519 0 010 5.038zm-6.139-16.68h7.039c.281.001.55.114.748.313l4.06 4.098H20.62v-4.41zm0 5.313h12.477v7.15c0 .688-.557 1.246-1.245 1.247H30.15a3.42 3.42 0 00-6.781 0H20.62v-8.396zM7.24 29.965a2.519 2.519 0 110-5.038 2.519 2.519 0 010 5.038zM.904 5.232c0-.687.558-1.244 1.245-1.245h16.324c.688 0 1.245.558 1.246 1.245v21.762H10.63a3.42 3.42 0 00-6.781 0H2.148a1.247 1.247 0 01-1.245-1.247V5.232z" fill="#284268"/><path fill="#FE8700" d="M4 11h13v9H4z"/></svg><svg fill="none" viewBox="0 0 38 38" id="prochie-raboty" xmlns="http://www.w3.org/2000/svg"><path d="M33.102 16.93v4.14l-3.031.295a11.363 11.363 0 01-1.59 3.77l1.96 2.367-2.92 2.92-2.367-1.96a11.043 11.043 0 01-3.77 1.59l-.296 3.068h-4.14l-.296-3.068a11.355 11.355 0 01-3.77-1.59l-2.365 1.96-2.92-2.92 1.959-2.366a11.046 11.046 0 01-1.59-3.77l-3.068-.296v-4.14l3.069-.295c.297-1.343.835-2.62 1.589-3.77l-1.959-2.367 2.92-2.92 2.366 1.96a11.046 11.046 0 013.77-1.59l.296-3.068h4.14l.295 3.068a11.36 11.36 0 013.77 1.59l2.366-1.96 2.883 2.92-1.959 2.366a11.046 11.046 0 011.59 3.77l3.068.296zM27.079 19a8.06 8.06 0 10-16.12 0 8.06 8.06 0 0016.12 0z" fill="#FE8700"/><path d="M19.019 27.06a8.06 8.06 0 100-16.12 8.06 8.06 0 000 16.12z" fill="#CCD3DF"/><path d="M4.849 21.587l2.697.26c.288 1.146.75 2.242 1.368 3.25L7.197 27.17a.52.52 0 00.033.7l2.92 2.919a.52.52 0 00.698.033l2.077-1.72a11.89 11.89 0 003.246 1.37l.26 2.689a.511.511 0 00.518.46h4.14a.511.511 0 00.517-.46l.26-2.693a11.633 11.633 0 003.25-1.365l2.073 1.718a.52.52 0 00.699-.033l2.92-2.919a.52.52 0 00.032-.698l-1.72-2.078a11.905 11.905 0 001.371-3.246l2.661-.26a.52.52 0 00.47-.517v-4.14a.52.52 0 00-.47-.517l-2.698-.26a11.638 11.638 0 00-1.368-3.25l1.717-2.073a.52.52 0 00-.03-.697l-2.883-2.92a.52.52 0 00-.701-.035l-2.078 1.72a11.903 11.903 0 00-3.246-1.37l-.26-2.689a.511.511 0 00-.517-.46h-4.14a.512.512 0 00-.517.46l-.26 2.692a11.634 11.634 0 00-3.25 1.366L10.849 7.18a.52.52 0 00-.699.033L7.23 10.13a.52.52 0 00-.032.698l1.72 2.078a11.903 11.903 0 00-1.371 3.246l-2.697.26a.52.52 0 00-.47.517v4.14a.52.52 0 00.47.517zm.569-4.185l2.598-.25a.52.52 0 00.458-.408c.285-1.28.8-2.5 1.518-3.598a.52.52 0 00-.036-.613l-1.657-2.001 2.25-2.251 2.003 1.657a.52.52 0 00.62.032 10.552 10.552 0 013.59-1.514.509.509 0 00.408-.448l.25-2.59h3.197l.25 2.59a.514.514 0 00.407.453c1.281.284 2.5.797 3.599 1.515a.52.52 0 00.612-.037l2-1.656 2.218 2.247-1.659 2.004a.52.52 0 00-.032.619 10.551 10.551 0 011.514 3.592.518.518 0 00.458.407l2.598.25v3.197l-2.562.249a.52.52 0 00-.457.407 10.874 10.874 0 01-1.518 3.599.52.52 0 00.036.613l1.657 2.002-2.25 2.25-2.003-1.657a.52.52 0 00-.619-.032 10.55 10.55 0 01-3.592 1.514.509.509 0 00-.407.449l-.25 2.589H17.42l-.25-2.59a.514.514 0 00-.408-.453c-1.28-.283-2.5-.797-3.597-1.515a.52.52 0 00-.613.037L10.55 29.72l-2.251-2.25 1.657-2.002a.52.52 0 00.032-.62 10.55 10.55 0 01-1.514-3.591.52.52 0 00-.458-.408l-2.598-.25v-3.196z" fill="#284268"/><path d="M19.019 27.58a8.58 8.58 0 10-8.58-8.58 8.59 8.59 0 008.58 8.58zm0-16.12A7.54 7.54 0 1111.478 19a7.55 7.55 0 017.54-7.54z" fill="#284268"/></svg><svg fill="none" viewBox="0 0 30 30" id="sborka-remont-mebeli" xmlns="http://www.w3.org/2000/svg"><path d="M22.675 26.993H4.57a1.172 1.172 0 01-1.172-1.172v-4.518h23.204v4.518a1.174 1.174 0 01-1.172 1.172h-2.755z" fill="#FE8700"/><path d="M3.398 15.007h23.204v6.296H3.398v-6.296z" fill="#D2D6E8"/><path d="M26.602 9.438v5.568H3.398V9.438h23.204z" fill="#FE8700"/><path d="M26.602 2.11v7.328H15v-8.5h10.43a1.171 1.171 0 011.172 1.171zM24.682 26.993v1.463a.596.596 0 01-.585.607h-.836a.596.596 0 01-.586-.607v-1.463h2.007z" fill="#D2D6E8"/><path d="M15 .938v8.5H3.398V2.109A1.171 1.171 0 014.57.938H15z" fill="#FE8700"/><path d="M7.325 26.993v1.463a.596.596 0 01-.586.607h-.836a.596.596 0 01-.585-.607v-1.463h2.007z" fill="#D2D6E8"/><path d="M4.57 27.345h.396v1.111a.949.949 0 00.937.958h.836a.949.949 0 00.937-.958v-1.111h14.648v1.111a.949.949 0 00.936.958h.837a.948.948 0 00.937-.958v-1.111h.396a1.525 1.525 0 001.523-1.524V2.11A1.525 1.525 0 0025.43.586H4.57a1.525 1.525 0 00-1.523 1.523v23.712a1.525 1.525 0 001.523 1.523zM26.25 9.788v4.866H3.75V9.789h22.5zm0 11.162H3.75v-5.593h22.5v5.593zM6.973 28.456a.245.245 0 01-.234.255h-.836a.245.245 0 01-.233-.255v-1.111h1.303v1.111zm17.358 0a.245.245 0 01-.234.255h-.837a.245.245 0 01-.233-.255v-1.111h1.303v1.111zm1.099-1.815H4.57a.821.821 0 01-.82-.82v-4.167h22.5v4.167a.821.821 0 01-.82.82zm.82-24.532v6.977H15.352V1.29H25.43a.821.821 0 01.82.82zM4.57 1.29h10.078v7.797H3.75V2.11a.821.821 0 01.82-.82z" fill="#284268"/><path d="M13.987 11.905h2.026a.352.352 0 000-.704h-2.026a.352.352 0 000 .704zM13.987 17.896h2.026a.352.352 0 000-.703h-2.026a.352.352 0 000 .703zM16.013 23.305h-2.026a.352.352 0 000 .703h2.026a.352.352 0 000-.703z" fill="#284268"/></svg><svg fill="none" viewBox="0 0 32 32" id="stroitelnye-raboty" xmlns="http://www.w3.org/2000/svg"><g clip-path="url(#kclip0)"><path d="M30.715 23.855a.798.798 0 11-.003 1.596.798.798 0 01.003-1.596zM28.623 22.975a1.598 1.598 0 01-1.598-1.598v-2.131a1.598 1.598 0 013.196 0v2.13c0 .883-.715 1.598-1.598 1.599z" fill="#00B913"/><path d="M25.556 28.964v.017h-7.191v-9.588H13.57v9.588h-2.162c0-.882-.715-1.598-1.598-1.598H4.763v-.044a1.198 1.198 0 00.017-2.396l.002-.054V10.655l-.046-.063L15.17 2.997l7.59 5.525 2.503 1.823.294.213v18.406zm-8.79-20.267a1.598 1.598 0 10-3.196 0 1.598 1.598 0 003.197 0zm-7.29 17.444a1.198 1.198 0 10-2.396 0 1.198 1.198 0 002.397 0z" fill="#FE8700"/><path d="M25.556 4.263v6.295l-.294-.213-2.504-1.822v-4.26h2.798zM13.57 19.393h4.795v9.588H13.57v-9.588z" fill="#E5E5E5"/><path d="M16.767 8.697a1.598 1.598 0 11-3.196 0 1.598 1.598 0 013.196 0z" fill="#6D7485"/><path d="M11.41 28.981H1.422c0-.882.716-1.597 1.598-1.598h6.792c.882 0 1.598.716 1.598 1.598z" fill="#6FE3FF"/><path d="M9.477 26.14a1.198 1.198 0 11-2.397.001 1.198 1.198 0 012.397 0zM4.78 24.943a1.155 1.155 0 11-.121 2.308 1.155 1.155 0 01.121-2.308z" fill="#00B913"/><path d="M.48 14.17c.101 0 .2-.031.282-.091L4.303 11.5v13.028a1.672 1.672 0 00-1.033 2.375h-.25A2.08 2.08 0 001 28.502H.82a.48.48 0 100 .959h30.293a.48.48 0 000-.959h-2.012v-2.216l.901-.57a1.282 1.282 0 10-.538-.795l-.363.23v-1.753a2.08 2.08 0 001.598-2.021v-2.131a2.077 2.077 0 00-4.154 0v2.13a2.081 2.081 0 001.598 2.021v2.706l-.473-.337a.48.48 0 00-.557.78l1.03.735v1.221h-2.109V11.501l3.541 2.578a.48.48 0 00.564-.775l-4.105-2.989V4.263a.48.48 0 00-.48-.48h-2.797a.48.48 0 00-.479.48V7.58l-6.828-4.97a.48.48 0 00-.565 0L.197 13.303a.479.479 0 00.283.867zm30.235 10.164a.32.32 0 11-.263.501.32.32 0 01.262-.5zm-3.21-2.957v-2.131a1.119 1.119 0 012.236 0v2.13c0 .432-.249.825-.639 1.01v-.4a.48.48 0 10-.959 0v.4a1.119 1.119 0 01-.639-1.01zM2.008 28.502c.186-.39.579-.638 1.011-.64h6.791c.432.001.826.25 1.011.64H2.009zm5.55-2.361a.72.72 0 111.439 0 .72.72 0 01-1.439 0zm10.326 2.361H14.05v-8.63h3.835v8.63zm5.353-23.76h1.838v4.875l-1.838-1.338V4.742zM5.26 10.802L15.17 3.59l7.288 5.305.02.015 2.6 1.893v17.699h-6.233v-9.108a.48.48 0 00-.48-.48h-4.793a.48.48 0 00-.48.48v9.108h-1.258a2.08 2.08 0 00-2.021-1.598H9.77a1.678 1.678 0 10-2.985 0h-.53c.121-.236.185-.497.185-.763a1.684 1.684 0 00-1.18-1.6V10.803zm-.487 14.62a.698.698 0 11-.02 0h.02z" fill="#284268"/><path d="M15.17 10.775a2.077 2.077 0 100-4.155 2.077 2.077 0 000 4.155zm0-3.196a1.119 1.119 0 11-.001 2.237 1.119 1.119 0 010-2.237z" fill="#284268"/></g><defs><clipPath id="kclip0"><path fill="#fff" d="M0 0h32v32H0z"/></clipPath></defs></svg><svg fill="none" viewBox="0 0 36 36" id="uslugi-elektrika" xmlns="http://www.w3.org/2000/svg"><path d="M31.342 15.697v2.742a.984.984 0 11-1.969 0v-2.742h1.969z" fill="#FB6771"/><path d="M31.342 13.658v2.039h-1.969v-2.04H31.342zM27.826 12.251v2.04h-1.969v-2.04H27.826z" fill="#CCD3DF"/><path d="M27.826 14.29v2.742a.984.984 0 11-1.969 0V14.29h1.97z" fill="#FB6771"/><path d="M24.275 4.905v22.709a2.812 2.812 0 01-2.813 2.812H7.471a2.812 2.812 0 01-2.813-2.812V4.905a2.813 2.813 0 012.813-2.813h13.991a2.812 2.812 0 012.813 2.813z" fill="#FE8700"/><path d="M20.568 4.499H8.364a1.687 1.687 0 00-1.687 1.687v8.826h15.579V6.186A1.687 1.687 0 0020.568 4.5z" fill="#B0B5CA"/><path d="M14.396 24.469a3.568 3.568 0 100-7.137 3.568 3.568 0 000 7.137z" fill="#CCD3DF"/><path d="M11.29 26.384h6.354v1.898H11.29v-1.898z" fill="#FB6771"/><path d="M6.064 27.614V4.905a2.813 2.813 0 012.813-2.813H7.471a2.812 2.812 0 00-2.813 2.813v22.709a2.812 2.812 0 002.813 2.812h1.406a2.812 2.812 0 01-2.813-2.812z" fill="#E27A05"/><path d="M10.474 4.499h-2.11a1.688 1.688 0 00-1.687 1.687v8.826h2.11V6.186A1.688 1.688 0 0110.473 4.5z" fill="#D2D6E8"/><path d="M14.467 8.294a6.999 6.999 0 00-6.994 6.718H21.46a6.998 6.998 0 00-6.993-6.718z" fill="#6D7486"/><path d="M16.074 15.012H12.86a1.632 1.632 0 013.215 0zM7.473 15.012h2.109a7 7 0 015.94-6.639 7.005 7.005 0 00-8.05 6.64z" fill="#B0B5CA"/><path d="M17.644 25.962H11.29a.422.422 0 00-.422.422v1.898a.422.422 0 00.422.422h6.354a.422.422 0 00.422-.422v-1.898a.422.422 0 00-.422-.422zm-.422 1.899h-5.51v-1.055h5.51v1.055zM7.47 28.739a1.127 1.127 0 01-1.124-1.125v-5.278a.422.422 0 10-.844 0v5.278a1.97 1.97 0 001.969 1.968.422.422 0 100-.843zM5.924 21.52a.422.422 0 00.422-.423v-.495a.422.422 0 10-.844 0v.495a.422.422 0 00.422.422zM20.568 4.077h-9.693a.421.421 0 100 .843h9.693a1.267 1.267 0 011.266 1.266v8.216A7.422 7.422 0 007.099 14.4V6.186A1.267 1.267 0 018.364 4.92h1.034a.422.422 0 100-.843H8.364a2.112 2.112 0 00-2.11 2.11v8.825a.422.422 0 00.423.422h15.579a.421.421 0 00.422-.422V6.186a2.112 2.112 0 00-2.11-2.11zM13.48 14.59a1.212 1.212 0 011.972 0H13.48zm2.917 0a2.045 2.045 0 00-.914-1.083l.921-2.234a.42.42 0 00-.228-.554.423.423 0 00-.552.232l-.948 2.299a2.05 2.05 0 00-2.14 1.34H7.928c.05-.473.15-.94.3-1.39a.419.419 0 00.136.087l.747.301a.423.423 0 00.315-.782l-.747-.301a.421.421 0 00-.157-.03 6.55 6.55 0 011.026-1.548.42.42 0 00.088.131l.569.57a.422.422 0 00.597-.596l-.57-.57a.421.421 0 00-.131-.089 6.573 6.573 0 011.436-.97.42.42 0 00.033.156l.315.741a.42.42 0 00.554.223.42.42 0 00.223-.553l-.315-.74a.42.42 0 00-.09-.135 6.56 6.56 0 011.818-.367.421.421 0 00-.03.155v.805a.422.422 0 00.844 0v-.805a.421.421 0 00-.03-.155c.579.033 1.151.144 1.701.328a.42.42 0 00-.087.135l-.301.746a.421.421 0 10.782.316l.301-.747a.42.42 0 00.03-.158 6.565 6.565 0 011.548 1.026.422.422 0 00-.132.088l-.57.57a.422.422 0 00.597.596l.57-.57a.42.42 0 00.088-.13c.386.433.713.916.972 1.435a.42.42 0 00-.157.033l-.742.315a.422.422 0 00.33.777l.742-.315a.421.421 0 00.132-.09c.173.487.288.993.342 1.507h-4.608z" fill="#284268"/><path d="M31.342 13.236h-.563v-2.954a.422.422 0 00-.843 0v2.954h-.563a.422.422 0 00-.422.421v4.782a1.409 1.409 0 00.985 1.341V31.94a1.548 1.548 0 01-1.547 1.547h-5.344a1.555 1.555 0 01-1.191-.563h3.019a2.393 2.393 0 002.39-2.39v-12.16a1.409 1.409 0 00.985-1.34V12.25a.422.422 0 00-.422-.422h-.562V8.876a.422.422 0 00-.844 0v2.953h-.563a.422.422 0 00-.421.422v4.781a1.409 1.409 0 00.984 1.342v12.159a1.548 1.548 0 01-1.547 1.546h-3.368a1.557 1.557 0 01-.007-.14v-1.092a3.238 3.238 0 003.199-3.233V4.905a3.238 3.238 0 00-3.235-3.234H7.471a3.238 3.238 0 00-3.235 3.234v22.709a3.238 3.238 0 003.235 3.234h9.69a2.393 2.393 0 002.368 2.075h1.338a2.405 2.405 0 002.178 1.406h5.344a2.393 2.393 0 002.39-2.39V19.78a1.409 1.409 0 00.985-1.341v-4.781a.422.422 0 00-.422-.422zm-5.063-.563h1.125v1.195H26.28v-1.195zm0 4.36v-2.32h1.125v2.32a.562.562 0 01-1.125 0zm-6.75 15.046a1.55 1.55 0 01-1.514-1.23h2.64v1.09c0 .047.002.094.004.14h-1.13zM7.471 30.004a2.393 2.393 0 01-2.39-2.39V4.905a2.393 2.393 0 012.39-2.39h13.991a2.393 2.393 0 012.39 2.39v22.709a2.393 2.393 0 01-2.39 2.39H7.471zM30.92 18.44a.563.563 0 11-1.125 0v-2.32h1.125v2.32zm0-3.164h-1.125v-1.196h1.125v1.196z" fill="#284268"/><path d="M12.656 20.9a3.57 3.57 0 012.655-3.45 3.569 3.569 0 100 6.9 3.57 3.57 0 01-2.655-3.45z" fill="#E5EDF9"/><path d="M17.572 17.795a.942.942 0 010 1.336l-.027.028-4.82 4.82-.027.026a.946.946 0 01-1.337-1.336l.029-.028 4.819-4.819.026-.027a.945.945 0 011.337 0z" fill="#B0B5CA"/><path d="M18.272 18.463a1.368 1.368 0 00-2.115-1.144 3.96 3.96 0 00-5.271 5.27 1.368 1.368 0 001.891 1.893 3.964 3.964 0 005.245-1.838.422.422 0 00-.757-.372 3.12 3.12 0 01-3.811 1.575l3.96-3.96c.148.432.2.893.15 1.347a.422.422 0 00.84.09 3.938 3.938 0 00-.356-2.114c.146-.222.224-.482.224-.747zm-1.002.374l-4.843 4.843-.026.027a.524.524 0 01-.745-.736l.7-.7a.421.421 0 10-.596-.597l-.24.24a3.116 3.116 0 013.96-3.96l-2.876 2.876a.422.422 0 00.597.597l3.31-3.31.023-.024a.523.523 0 11.736.744z" fill="#284268"/></svg><svg fill="none" viewBox="0 0 36 36" id="uslugi-santexnika" xmlns="http://www.w3.org/2000/svg"><path d="M34.913 14.191A4.24 4.24 0 1131.09 10.4l.019.019-2.307 2.307.593 3.195 3.194.593 2.323-2.322z" fill="#CCD3DF"/><path d="M28.588 29.867a2.94 2.94 0 113.34 4.84 2.94 2.94 0 01-3.34-4.84zm3.143 2.42l-.737-1.276h-1.472l-.736 1.275.736 1.276h1.473l.736-1.276z" fill="#6D7486"/><path d="M28.588 18.3a4.247 4.247 0 003.34.378v11.168l-.01.014a2.938 2.938 0 00-3.33.007" fill="#B0B5CA"/><path d="M24.6 26.597v8.63h-4.207v-13.97a5.493 5.493 0 014.207 5.34z" fill="#A0EAEA"/><path d="M16.9 19.89l-.041.077v3.354a4.026 4.026 0 01-8.052 0v-3.345l-.157.079c-1.076.529-2.21.932-3.378 1.202v13.97h15.12v-13.97A14.51 14.51 0 0116.9 19.89z" fill="#FE8700"/><path d="M19.08 8.044H6.586a.816.816 0 100 1.632H19.08a.816.816 0 100-1.632z" fill="#EDB740"/><path d="M19.046 7.978v.066H6.62v-.056c0-2.623 1.452-4.922 3.55-5.985v.794a3.837 3.837 0 002.65 3.648l.088.028a3.835 3.835 0 002.587-3.627v-.844c2.099 1.062 3.55 3.352 3.55 5.976z" fill="#FFDB00"/><path d="M17.578 9.676l.017 1.923h.233c.084 0 .168.012.248.036.247-.63.414-1.287.496-1.959h-.994z" fill="#6D7486"/><path d="M18.076 11.635a.876.876 0 00-.248-.036h-.234l-.017-1.923H8.295L8.277 11.6h-.233a.874.874 0 000 1.747h.233l.367 2.345a4.347 4.347 0 004.292 3.67 4.34 4.34 0 002.746-.978 4.341 4.341 0 001.545-2.692l.367-2.344h.234a.874.874 0 00.248-1.712z" fill="#FFD8B7"/><path d="M16.9 19.89l-.041.077v3.354a4.026 4.026 0 11-8.052 0v-3.345l1.188-.596v1.652a3.726 3.726 0 005.687 0v-1.81l1.095.603.123.066z" fill="#A0EAEA"/><path d="M14.98 18.85a4.34 4.34 0 01-4.965-.619l-.02.022v2.779a3.727 3.727 0 005.687 0v-2.649a4.302 4.302 0 01-.702.468z" fill="#EFC597"/><path d="M15.495 2.002v.844a3.835 3.835 0 01-2.587 3.627l-.088-.028a3.837 3.837 0 01-2.65-3.648v-.795a5.804 5.804 0 011.143-.437L11.23.773h3.205l-.082.792c.395.105.778.251 1.142.437z" fill="#EDB740"/><path d="M7.044 9.676h-.001c.071.441.19.873.356 1.288l.284.713a.859.859 0 01.36-.078h.234l.017-1.923h-1.25z" fill="#6D7486"/><path d="M5.272 21.257v13.97H1.065v-8.63a5.493 5.493 0 014.207-5.34z" fill="#A0EAEA"/><path d="M17.005 30.454v4.773H9.361V30.44a8.223 8.223 0 007.644.014z" fill="#FFDB00"/><path d="M8.73 7.988a6.871 6.871 0 011.534-4.352 3.835 3.835 0 01-.093-.839v-.795C8.072 3.067 6.62 5.365 6.62 7.989v.056h2.108v-.056z" fill="#FFFC8F"/><path d="M13.001 18.85a4.348 4.348 0 01-2.248-3.16l-.24-1.532a10.256 10.256 0 01-.123-1.633l.013-2.849H8.294L8.277 11.6h-.233a.874.874 0 00-.873.872c-.001.482.418.876.9.876h.206l.367 2.344a4.348 4.348 0 002.248 3.16c.95.507 2.054.643 3.099.38a4.358 4.358 0 01-.99-.38z" fill="#F4C698"/><path d="M10.264 3.636a6.284 6.284 0 012.016-1.634 5.803 5.803 0 011.142-.437L13.34.773h-2.11l.083.792a5.804 5.804 0 00-1.142.438v.794c0 .282.031.564.093.84zM7.88 8.86a.816.816 0 01.815-.816h-2.11a.816.816 0 100 1.632h2.11a.816.816 0 01-.816-.815z" fill="#FC6"/><path d="M5.272 22.281v-1.024a5.493 5.493 0 00-4.207 5.34v8.63h2.11v-8.63a5.48 5.48 0 012.097-4.316z" fill="#74C4C2"/><path d="M30.994 30.59h-1.472a.422.422 0 00-.366.21l-.736 1.275a.422.422 0 000 .422l.736 1.275a.42.42 0 00.366.211h1.472a.423.423 0 00.366-.21l.736-1.276a.422.422 0 000-.422L31.36 30.8a.423.423 0 00-.365-.21zm-.243 2.55h-.986l-.492-.854.492-.853h.986l.492.853-.492.853zM20.491 20.846a14.221 14.221 0 01-3.51-1.391l-.877-.482v-.397a4.791 4.791 0 001.54-2.82l.313-1.994a1.295 1.295 0 00.642-2.328c.148-.435.261-.882.337-1.335h.145a1.238 1.238 0 00.381-2.416 7.33 7.33 0 00-1.413-4.048 6.667 6.667 0 00-3.24-2.374l.046-.444a.42.42 0 00-.42-.465H11.23a.422.422 0 00-.42.465l.047.444a6.663 6.663 0 00-3.24 2.38 7.35 7.35 0 00-1.412 4.042 1.237 1.237 0 00.38 2.416h.11c.076.348.18.69.312 1.02l.16.403a1.294 1.294 0 00.748 2.24l.313 1.994c.159.998.63 1.921 1.345 2.635v.728l-.878.441a.419.419 0 00-.147.074l-.087.043a15.06 15.06 0 01-3.287 1.17 5.893 5.893 0 00-4.53 5.75v8.63a.422.422 0 00.421.421H24.6a.422.422 0 00.422-.421v-8.63a5.893 5.893 0 00-4.53-5.75zM4.851 34.805H1.487v-8.208a5.05 5.05 0 013.364-4.775v12.983zM10.592 2.27c.268-.122.545-.22.83-.297a.422.422 0 00.31-.451l-.034-.327h2.27l-.034.327a.422.422 0 00.31.451c.284.076.562.175.83.297v.576a3.415 3.415 0 01-2.174 3.18 3.405 3.405 0 01-2.308-3.23V2.27zM8.295 4.142a5.996 5.996 0 011.454-1.4v.055a4.248 4.248 0 002.94 4.049l.088.028a.42.42 0 00.267-.002 4.259 4.259 0 002.873-4.027v-.104c.56.38 1.052.852 1.454 1.396a6.474 6.474 0 011.242 3.486H7.053a6.497 6.497 0 011.242-3.48zm-1.71 5.113a.394.394 0 110-.789H19.08a.394.394 0 110 .789H6.586zm11.495.844c-.02.1-.04.2-.063.301v-.301h.063zm-10.225 0v.87l-.064-.161a5.722 5.722 0 01-.23-.71h.294zm1.207 5.527l-.368-2.345a.422.422 0 00-.417-.356h-.233a.452.452 0 110-.904h.233A.422.422 0 008.7 11.6v-1.5h8.474v1.5a.422.422 0 00.422.422h.221a.418.418 0 00.244.079l.02-.002a.45.45 0 01-.252.827h-.233a.422.422 0 00-.417.356l-.367 2.345a3.922 3.922 0 01-7.75 0zm1.355 3.632v-.195a4.759 4.759 0 004.761.16c.028-.014.055-.03.082-.045v1.694a3.305 3.305 0 01-4.843 0v-1.388a.418.418 0 000-.227zm-1.188.978l.344-.173v.97c0 .099.036.195.1.272a4.15 4.15 0 006.33 0 .422.422 0 00.1-.273v-1.097l.334.183v3.203a3.604 3.604 0 11-7.208 0v-3.085zm7.354 14.569h-6.8v-3.696a8.646 8.646 0 006.8.012v3.684zm3.388 0h-2.544v-4.35a.422.422 0 00-.617-.374 7.8 7.8 0 01-7.251-.014.422.422 0 00-.62.374v4.364H5.695v-13.22a16.04 16.04 0 002.69-.937v2.674a4.448 4.448 0 108.897 0v-2.76c.861.427 1.762.77 2.69 1.022v13.22zm4.207 0h-3.363V21.822a5.05 5.05 0 013.363 4.775v8.208z" fill="#284268"/><path d="M12.833 24.549a.555.555 0 100-1.111.555.555 0 000 1.11zM12.833 26.293a.556.556 0 100-1.113.556.556 0 000 1.113zM35.235 13.889l-.017-.019a.422.422 0 00-.69.11l-2.079 2.078-2.691-.5-.5-2.691 2.15-2.15a.424.424 0 000-.598l-.018-.018a.422.422 0 00-.259-.122 4.66 4.66 0 00-2.965 8.556v11.123a3.362 3.362 0 104.185 0V18.976a4.656 4.656 0 002.992-4.725.423.423 0 00-.108-.362zm-2.459 18.397a2.519 2.519 0 11-5.037 0 2.519 2.519 0 015.037 0zm-3.767-3.12V18.965a4.655 4.655 0 002.497.243v9.958a3.35 3.35 0 00-2.497 0zm4.386-11.846a3.818 3.818 0 11-3.316-6.468l-1.575 1.575a.422.422 0 00-.116.375l.593 3.195a.421.421 0 00.338.337l3.194.594a.421.421 0 00.376-.117l1.575-1.575a3.8 3.8 0 01-1.07 2.084zM12.15 4.567h1.513a.422.422 0 000-.844H12.15a.422.422 0 100 .844zM12.15 3.171h1.513a.422.422 0 000-.844H12.15a.422.422 0 100 .844z" fill="#284268"/></svg><svg fill="none" viewBox="0 0 34 34" id="ustanovka-mezhkomnatnyx-dverej" xmlns="http://www.w3.org/2000/svg"><path d="M27.526 2.543V31.34a1.329 1.329 0 01-1.329 1.328h-.636V1.215h.636a1.328 1.328 0 011.329 1.328z" fill="#E5E5E5"/><path d="M25.56 1.215v31.452H7.803a1.33 1.33 0 01-1.328-1.328V2.543a1.328 1.328 0 011.328-1.328H25.56z" fill="#E27A05"/><path d="M20.56 1.215v31.452H7.804a1.33 1.33 0 01-1.328-1.328V2.543a1.328 1.328 0 011.328-1.328H20.56z" fill="#FE8700"/><path d="M22.642 15.31a.398.398 0 00-.399.398v2.437a.398.398 0 10.797 0v-2.437a.398.398 0 00-.398-.399z" fill="#284268"/><path d="M26.197.817H7.803a1.729 1.729 0 00-1.727 1.726V31.34a1.728 1.728 0 001.727 1.727h18.394a1.729 1.729 0 001.727-1.727V2.543A1.728 1.728 0 0026.197.817zM6.873 31.339V2.543a.93.93 0 01.93-.93h17.359V32.27H7.802a.93.93 0 01-.929-.93zm20.254 0a.93.93 0 01-.93.93h-.238V1.614h.238a.93.93 0 01.93.93v28.795z" fill="#284268"/></svg></svg>